<svg width="17" height="16" viewBox="0 0 17 16" fill="none" xmlns="http://www.w3.org/2000/svg">
<g clip-path="url(#clip0_1233_442)">
<path d="M5.2266 1.00964C4.97194 1.01207 4.67484 1.01995 4.43231 1.06876C4.28376 1.09847 4.16249 1.14455 4.10489 1.18578C4.06851 1.21003 4.05639 1.22277 4.05032 1.23641L4.76579 3.03084C4.76579 3.02962 4.76882 3.02811 4.76882 3.02689C4.92343 2.80498 5.12049 2.62035 5.39334 2.62035H6.02998L5.2266 1.00964ZM12.0417 1.00964L11.2383 2.62035H11.875C12.1509 2.62035 12.3449 2.80892 12.4995 3.03417L13.218 1.23641C13.2119 1.22277 13.1998 1.21003 13.1634 1.18578C13.1058 1.14455 12.9846 1.09847 12.836 1.06876C12.5935 1.01995 12.2964 1.01268 12.0417 1.00964ZM8.63416 1.40527C7.68829 1.40527 6.73938 1.90125 6.73938 2.8932H7.28508C7.28508 1.6375 9.98324 1.6375 9.98324 2.8932H10.5289C10.5289 1.90125 9.58003 1.40527 8.63416 1.40527ZM5.39334 3.16605C5.39334 3.16605 5.32361 3.18454 5.2175 3.34037C5.10836 3.49195 4.98407 3.74964 4.86583 4.08312C4.62936 4.75008 4.40199 5.72323 4.20797 6.86313C3.82628 9.12776 3.57526 12.0684 3.57193 14.7363C3.61255 14.7636 3.70714 14.809 3.83811 14.8485C4.10186 14.9303 4.5081 15.0061 4.99922 15.0667C5.98148 15.185 7.30933 15.2456 8.63416 15.2456C9.95898 15.2456 11.2868 15.185 12.2691 15.0667C12.7602 15.0061 13.1665 14.9303 13.4302 14.8485C13.5606 14.809 13.6545 14.7636 13.697 14.7363C13.694 12.1564 13.4423 9.21871 13.0603 6.92982C12.8663 5.7778 12.6389 4.78949 12.4025 4.10737C12.2812 3.76783 12.16 3.50407 12.0508 3.3434C11.9417 3.18484 11.8689 3.16605 11.875 3.16605H5.39334ZM8.63416 3.84665C9.33447 3.84665 10.0348 3.97095 10.6108 4.2347C11.1898 4.49845 11.6628 4.91985 11.8083 5.50799L11.8113 5.51102L12.7602 9.64314H4.5081L5.457 5.51102L5.46003 5.50799C5.60555 4.91985 6.07849 4.49845 6.65753 4.2347C7.23354 3.97095 7.93385 3.84665 8.63416 3.84665ZM8.63416 4.39234C8.00055 4.39234 7.36693 4.51058 6.88187 4.73189C6.39984 4.9532 6.08455 5.25939 5.98754 5.63835L5.19325 9.09744H12.0751L11.2808 5.63835C11.1838 5.25939 10.8685 4.9532 10.3864 4.73189C9.90138 4.51058 9.26777 4.39234 8.63416 4.39234ZM6.69391 5.7869H10.5744V6.33259H7.93688V7.13901H7.39119V6.33259H6.69391V5.7869ZM4.57783 10.4496H5.12352C5.12352 11.5076 5.26298 12.2837 5.49944 12.7597C5.73894 13.2326 6.02392 13.4175 6.4726 13.4175H10.7957C11.2444 13.4175 11.5294 13.2326 11.7689 12.7597C12.0053 12.2837 12.1448 11.5076 12.1448 10.4496H12.6905C12.6905 11.5531 12.5571 12.3989 12.2539 13.0022C11.9508 13.6085 11.4263 13.9632 10.7957 13.9632H6.4726C5.84202 13.9632 5.31755 13.6085 5.01438 13.0022C4.71122 12.3989 4.57783 11.5531 4.57783 10.4496Z" fill="#FF4E47"/>
</g>
<defs>
<clipPath id="clip0_1233_442">
<rect width="15.522" height="15.522" fill="white" transform="translate(0.873169 0.239014)"/>
</clipPath>
</defs>
</svg>
