<svg width="40" height="40" viewBox="0 0 40 40" fill="currentColor" xmlns="http://www.w3.org/2000/svg">
<g clip-path="url(#clip0_5737_2088)">
<path d="M18.8271 0.202637C16.3662 0.515137 14.1006 1.59326 12.4521 3.23389C10.5381 5.15576 9.53809 7.22607 9.17871 10.0151L9.13184 10.3901H5.26465H1.40527V21.9136V33.437H0.780273H0.155273V35.1792V36.9136L1.62402 38.3823L3.08496 39.8433H19.999H36.9131L38.3818 38.3745L39.8428 36.9136V35.1714V33.437H39.2178H38.5928V21.9136V10.3901H34.7334H30.874L30.8193 9.97607C30.5303 7.60107 29.7568 5.78857 28.3037 4.04639C27.0928 2.59326 25.4756 1.44482 23.749 0.819824C22.6006 0.405762 21.624 0.226074 20.3115 0.194824C19.6475 0.179199 18.9756 0.187012 18.8271 0.202637ZM19.374 3.71826V5.88232L18.835 5.82764C18.21 5.77295 17.0146 5.47607 16.4287 5.22607L16.0225 5.06201L16.3037 4.49951C16.9287 3.25732 17.7803 2.28076 18.6318 1.81982C19.4287 1.39014 19.374 1.2417 19.374 3.71826ZM21.3506 1.81201C22.21 2.27295 23.0693 3.24951 23.6943 4.50732C23.9521 5.00732 23.96 5.06982 23.8428 5.1167C22.9756 5.46826 21.9287 5.74951 21.1396 5.82764L20.624 5.88232V3.71826C20.624 1.24951 20.5693 1.39795 21.3506 1.81201ZM15.8193 2.75732C15.6318 3.03076 15.3506 3.50732 15.1943 3.81201C15.0381 4.12451 14.8818 4.37451 14.8506 4.37451C14.749 4.37451 13.96 3.79639 13.9287 3.69482C13.9131 3.64795 14.1162 3.45264 14.3896 3.25732C14.8584 2.92139 15.9912 2.26514 16.1084 2.26514C16.1396 2.26514 16.0068 2.48389 15.8193 2.75732ZM24.5303 2.58545C25.21 2.95264 26.0928 3.56982 26.0928 3.67139C26.0928 3.7417 25.249 4.37451 25.1475 4.37451C25.1162 4.37451 24.96 4.12451 24.8037 3.81201C24.6475 3.50732 24.3662 3.03076 24.1787 2.75732C23.9912 2.48389 23.8584 2.26514 23.8896 2.26514C23.9209 2.26514 24.21 2.41357 24.5303 2.58545ZM13.46 4.97607C13.7334 5.18701 14.0537 5.42139 14.1787 5.51514L14.4053 5.67139L14.2334 6.29639C13.9678 7.22607 13.8428 7.91357 13.749 8.8667C13.7021 9.33545 13.6475 9.87451 13.624 10.0542L13.585 10.3901H12.0146H10.4443L10.4912 9.81982C10.6318 8.24951 11.5771 6.08545 12.6396 4.90576C12.7881 4.7417 12.9209 4.60889 12.9365 4.60889C12.9443 4.60889 13.1865 4.77295 13.46 4.97607ZM27.5537 5.16357C28.5693 6.41357 29.3584 8.32764 29.5068 9.85889L29.5537 10.3901H27.9834H26.4131L26.374 10.0542C26.3506 9.87451 26.3115 9.44482 26.2803 9.10107C26.2256 8.32764 26.0693 7.46045 25.8037 6.44482L25.6006 5.67139L25.8193 5.50732C25.9443 5.42139 26.2568 5.18701 26.5146 4.98389C26.7803 4.78857 27.0303 4.63232 27.0693 4.64014C27.1162 4.64795 27.3271 4.88232 27.5537 5.16357ZM16.9521 6.7417C17.3193 6.85107 17.8975 6.97607 18.2412 7.02295C18.585 7.07764 18.9834 7.13232 19.124 7.15576L19.374 7.19482V8.78857V10.3901H17.1475H14.9209V10.0151C14.9287 9.20264 15.2881 7.13232 15.5381 6.46826L15.6162 6.25732L15.9521 6.40576C16.1396 6.48389 16.585 6.64014 16.9521 6.7417ZM24.6396 7.08545C24.9131 8.27295 24.9912 8.75732 25.0537 9.62451L25.1006 10.3901H22.8662H20.624V8.78857V7.19482L20.8818 7.15576C21.0146 7.13232 21.4131 7.07764 21.7568 7.02295C22.46 6.92139 23.4521 6.64795 23.9834 6.41357C24.1787 6.32764 24.3584 6.25732 24.3896 6.25732C24.4131 6.24951 24.5303 6.62451 24.6396 7.08545ZM19.3584 13.2808L19.374 14.8901L18.624 14.9839C17.7256 15.1011 16.8115 15.3198 16.1162 15.6011C15.8428 15.7104 15.6006 15.7808 15.585 15.7651C15.4209 15.6089 15.0146 13.4526 14.9443 12.3979L14.8975 11.6401L17.1162 11.6558L19.335 11.6792L19.3584 13.2808ZM9.17871 12.1636C9.74902 17.0698 13.374 20.9292 18.1631 21.7573C19.1709 21.9292 20.7959 21.937 21.835 21.7651C25.5068 21.1558 28.6709 18.5933 30.085 15.0854C30.3975 14.2964 30.7178 13.0151 30.8193 12.1636L30.8662 11.7183H34.0693H37.2646V20.6636V29.6089H30.8584H24.4521V30.2339V30.8589H30.8584H37.2646V32.1479V33.437L30.8818 33.4526L24.4912 33.4761L24.4678 34.1167L24.4443 34.7651H19.999H15.5537L15.5303 34.1167L15.5068 33.4761L9.12402 33.4526L2.7334 33.437V32.1479V30.8589H9.13965H15.5459V30.2339V29.6089H9.13965H2.7334V20.6636V11.7183H5.92871H9.13184L9.17871 12.1636ZM13.6162 12.0464C13.835 13.9839 13.9365 14.6323 14.1475 15.4683C14.374 16.3745 14.3818 16.4448 14.2568 16.5229C14.1865 16.562 13.8506 16.8042 13.5225 17.0464L12.9287 17.4917L12.6631 17.2026C12.3428 16.8511 11.6553 15.812 11.3818 15.2729C10.9287 14.3667 10.4678 12.7104 10.4678 11.9839V11.7183H12.0225H13.585L13.6162 12.0464ZM25.0771 12.0464C25.0693 12.6089 24.8662 14.0073 24.6475 14.9136C24.5303 15.3901 24.4287 15.7808 24.4131 15.7808C24.3975 15.7808 23.9756 15.6401 23.4678 15.4761C22.5928 15.187 21.335 14.9214 20.8428 14.9214H20.624V13.3198V11.7183H22.8506H25.0771V12.0464ZM29.499 12.2417C29.3506 13.8511 28.4287 15.9683 27.3271 17.2104L27.0693 17.5073L26.5225 17.0933C26.2178 16.8667 25.8896 16.6245 25.7881 16.5542L25.6006 16.437L25.8037 15.6167C26.0771 14.5229 26.2256 13.687 26.2881 12.8901C26.3115 12.5229 26.3506 12.1089 26.374 11.9683L26.4131 11.7183H27.9834H29.5537L29.499 12.2417ZM19.374 18.3667V20.5542L19.2021 20.4995C18.1787 20.187 17.0068 19.0151 16.2959 17.6011C16.1865 17.3745 16.0928 17.1401 16.0928 17.0776C16.0928 16.8433 18.1396 16.2573 19.2412 16.1792C19.3662 16.1714 19.374 16.3276 19.374 18.3667ZM21.7959 16.3354C22.3506 16.4448 23.1943 16.687 23.6396 16.8745L23.9912 17.0308L23.7412 17.5151C22.9834 19.0151 21.835 20.1792 20.8037 20.4995L20.624 20.5542V18.3589V16.1636L20.999 16.2104C21.2021 16.2417 21.5615 16.2964 21.7959 16.3354ZM15.8115 19.2964C15.9443 19.4917 16.0928 19.6948 16.124 19.7573C16.2256 19.9214 15.0303 19.2729 14.4131 18.8276C14.1084 18.6089 13.8662 18.4136 13.8662 18.3979C13.8662 18.3745 14.0928 18.1948 14.3662 18.0073L14.8662 17.6558L15.21 18.2964C15.3975 18.6479 15.6709 19.1011 15.8115 19.2964ZM25.8428 18.1792C26.124 18.4214 26.1318 18.4292 25.9756 18.5464C25.3271 19.062 23.7412 19.9761 23.8818 19.7495C23.9131 19.6948 24.1084 19.3979 24.3037 19.1011C24.5068 18.7964 24.7646 18.3511 24.8896 18.1089L25.1084 17.6636L25.335 17.7964C25.46 17.8667 25.6865 18.0386 25.8428 18.1792ZM14.2178 35.3511V36.0151H19.999H25.7803V35.3511V34.687L32.1709 34.7026L38.5537 34.7261L38.5771 35.5464L38.6006 36.3589L37.4834 37.4761L36.3662 38.5933H19.999H3.63184L2.52246 37.4839L1.40527 36.3667V35.5776C1.40527 35.1479 1.42871 34.7651 1.45996 34.7417C1.4834 34.7104 4.36621 34.687 7.86621 34.687H14.2178V35.3511Z" fill="white"/>
<path d="M16.7959 30.2339V30.8589H17.4209H18.0459V30.2339V29.6089H17.4209H16.7959V30.2339Z" fill="white"/>
<path d="M19.374 30.2339V30.8589H19.999H20.624V30.2339V29.6089H19.999H19.374V30.2339Z" fill="white"/>
<path d="M21.9521 30.2339V30.8589H22.5771H23.2021V30.2339V29.6089H22.5771H21.9521V30.2339Z" fill="white"/>
<path d="M3.9834 36.6401V37.2651H7.85059H11.7178V36.6401V36.0151H7.85059H3.9834V36.6401Z" fill="white"/>
<path d="M27.6553 36.6401V37.2651H31.5225H35.3896V36.6401V36.0151H31.5225H27.6553V36.6401Z" fill="white"/>
</g>
<defs>
<clipPath id="clip0_5737_2088">
<rect width="40" height="40" fill="white"/>
</clipPath>
</defs>
</svg>
