<svg width="48" height="48" viewBox="0 0 48 48" fill="currentColor" xmlns="http://www.w3.org/2000/svg">
<path d="M15.5215 16.6042C15.2767 16.6615 15.433 16.651 15.2299 16.6771C14.3601 16.8646 15.0059 17.0313 15.5215 16.6042ZM30.8184 16.9531C30.8809 16.9115 31.0996 16.6979 30.4174 16.4896C30.459 16.7031 30.2767 16.6823 30.2767 16.8021C30.7819 17.2604 30.9903 18.0573 31.6361 18.224C31.7611 17.651 31.0632 17.3698 30.8184 16.9531ZM15.058 16.4375C15.1361 16.901 15.4851 15.9479 15.4903 15.6094C15.3549 15.6875 15.2194 15.7656 15.0788 15.8281C15.4069 15.9948 15.1205 16.1719 14.7663 16.4375C14.0476 17.3333 15.4382 15.7396 15.058 16.4375ZM23.9694 10.6354C16.6049 10.6354 10.6361 16.6042 10.6361 23.9688C10.6361 31.3281 16.6049 37.3021 23.9694 37.3021C31.334 37.3021 37.3028 31.3281 37.3028 23.9688C37.3028 16.6042 31.334 10.6354 23.9694 10.6354ZM24.3236 15.1042L24.3861 15.125C24.1361 15.4479 25.6882 16.3906 24.5736 16.4688C23.5319 16.7656 25.0111 16.1979 24.2038 16.2969C24.6309 15.7031 23.8653 15.6927 24.3236 15.1042ZM18.0007 15.9583C17.6257 15.6458 16.4486 16.3854 16.8601 16.2083C17.8809 15.8073 16.9278 16.25 17.1674 16.7292C16.9486 17.1823 17.0944 16.2813 16.5528 16.8177C16.1622 16.9063 15.2038 17.7917 15.3236 17.5208C15.2924 17.9427 14.183 18.4427 14.0319 19.1458C13.6674 20.1198 13.9434 19.1094 13.8757 18.7292C13.3549 18.0677 12.4069 19.849 12.6882 20.5521C13.1622 19.7188 13.1257 20.4635 12.7819 20.8333C13.1309 21.474 12.4642 22.3073 13.1257 22.7813C13.4174 22.849 14.0007 21.8021 13.7455 22.8906C13.9226 21.9479 14.2351 23.1146 14.7403 22.8542C14.7715 23.349 15.0788 23.1198 15.1465 23.7188C15.9903 23.6563 16.7611 25.0833 15.7559 25.3542C15.9069 25.3125 16.2038 25.5781 16.5476 25.375C17.1309 25.8385 18.6674 25.8958 18.709 27.0417C17.6517 27.5469 18.4486 28.9323 17.5319 29.4271C16.4799 29.2708 17.1726 30.724 16.7299 30.5573C16.9069 31.6042 15.6674 30.4219 16.1465 31C17.0267 31.5417 15.7611 31.4323 16.1569 31.8281C15.7142 31.7344 16.433 32.651 16.5528 32.9896C17.1882 34.0208 16.0059 32.7604 15.6569 32.4167C15.3236 31.75 14.5372 30.474 14.3184 29.4271C14.1934 27.9063 13.0163 26.8854 12.7455 25.401C12.4747 24.5729 13.4903 23.2448 12.9434 22.7813C12.4694 22.4115 12.6622 21.1458 12.3809 20.4792C13.084 17.4323 15.3184 14.8646 18.0007 13.3438C17.7247 13.5469 19.5788 12.8177 19.3653 12.9948C19.308 13.125 20.4486 12.5 21.1361 12.4063C21.0632 12.4167 19.3496 13.0313 19.8236 12.9479C19.0892 13.3073 19.7507 13.1042 20.1153 12.9219C19.3861 13.4583 18.8236 13.3073 17.9955 13.7813C17.1622 14 17.334 14.8646 16.7403 15.2969C17.0892 15.3594 17.9642 14.3958 18.4747 14.0573C19.6465 13.4896 17.8809 15.0885 18.9955 14.401C18.6205 14.75 18.6986 15.3073 18.4694 15.4635C18.3549 15.4323 18.9226 15.7344 18.0007 15.9583ZM19.8236 13.5625C19.7038 13.724 19.5372 14.0729 19.4382 13.8594C19.3028 13.9271 19.2507 14.2188 18.9955 13.9844C19.1465 13.875 19.3028 13.6146 19.0059 13.776C19.1413 13.6302 20.3497 13.2188 20.2819 13.0625C20.4955 12.9271 20.4747 12.8594 20.2299 12.9427C20.1049 12.901 20.5267 12.5469 21.0892 12.5C21.1674 12.5 21.1986 12.5521 21.058 12.5365C20.209 12.7969 20.5736 12.724 21.1465 12.5365C20.9278 12.6615 20.7767 12.6979 20.7403 12.7552C21.3132 12.5469 20.709 12.9063 20.8392 12.8802C20.6778 12.9635 20.8653 12.9896 20.5528 13.1094C20.6101 13.0625 20.0424 13.4479 20.3809 13.3333C20.0528 13.6458 19.9069 13.651 19.8236 13.5625ZM20.3236 14.3073C20.334 13.8073 21.0528 13.4896 20.9642 13.4635C21.8497 13.0469 20.6569 13.4792 21.3549 13.1042C21.6153 13.0781 22.1674 12.2448 22.933 12.1927C23.7767 11.9375 23.3861 12.2083 24.0111 11.9688L23.8861 12.0729C23.7767 12.0885 23.9122 12.2813 23.5163 12.5729C23.4747 13.026 22.7611 12.8177 23.1153 13.3021C22.8861 12.974 22.5424 13.2917 22.9746 13.3229C22.5111 13.6771 21.433 13.7396 20.9174 14.3281C20.584 14.8073 20.2767 14.6563 20.3236 14.3073ZM24.0267 15.974C23.6726 16.8281 23.3288 15.849 23.9538 15.6927C24.1101 15.776 24.1726 15.8021 24.0267 15.974ZM22.6934 14.2656C22.5892 13.8802 22.6726 14.0833 23.2924 13.901C23.7194 14.2083 22.9122 14.4115 22.6934 14.2656ZM34.2351 19.9115C33.7038 19.9531 33.2247 20.0781 32.7455 19.776C31.6413 18.5677 32.9486 21.1406 33.3132 20.0885C34.6257 20.5885 33.5736 22.3837 32.7455 22.1597C32.2819 21.1597 30.9139 18.9688 30.4174 19.9323C30.1378 19.9115 31.5788 21.849 32.4122 22.625C32.8583 23.4132 33.5684 22.2292 33.5007 23.0677C33.6049 24.5104 32.1726 26.8229 32.1726 26.8229L31.1413 29.5625C30.3809 30.4115 29.5684 31.5573 28.2038 31.375C28.2038 30.6563 27.8392 30.0469 27.7559 29.3073C27.0163 28.3698 28.5372 27.3646 27.5944 26.3854C26.5059 26.1406 27.8184 24.6406 26.6986 24.7813C26.0267 24.1094 25.0424 24.7604 24.0788 24.7656C22.8705 24.8802 21.6257 23.2813 22.1622 22.151C21.7351 20.974 23.5163 20.6302 23.5632 19.5938C24.4174 18.8802 25.6309 18.9688 26.7872 18.8021C26.7038 19.6302 27.5788 19.6354 28.2403 19.9115C28.6101 19.0156 29.7611 20.0573 30.5476 19.4896C30.8184 18.1667 29.7819 18.9635 29.1882 18.5417C28.4694 17.4896 30.7247 18 30.4903 17.4479C29.6153 17.4427 30.1101 16.3698 29.4903 16.9688C30.0476 17.0677 29.3913 17.5052 29.4069 17.0052C28.5632 16.7604 29.3757 17.9635 28.9486 18.0781C28.2976 17.8073 28.6049 18.3854 28.6726 18.474C28.3913 19.0833 28.0476 17.5781 27.2507 17.6198C26.459 16.8958 26.9382 17.9479 27.6257 18.1198C27.4799 18.1615 27.709 18.7604 27.5267 18.5052C26.959 17.724 25.8809 17.2031 25.2403 18.1615C25.1726 19.0573 23.3497 19.3125 23.6413 18.2656C23.2142 17.1823 24.9642 18.2344 24.8028 17.3698C23.6778 16.625 25.1101 16.8646 25.4903 16.1667C26.3549 16.1927 25.5267 15.4583 25.933 15.2448C25.8913 16.0417 26.5944 15.8906 27.1517 15.7396C27.0163 15.2813 27.4851 15.2969 27.1986 14.9167C28.4903 14.401 26.2142 15.1563 26.6726 14.026C26.1153 13.6406 26.4382 14.875 26.6726 15.0052C26.6882 15.3854 26.3653 15.8542 25.9226 15.0573C25.2767 15.4792 25.3444 14.6302 25.3028 14.7188C25.2299 14.3906 25.7924 14.375 25.7976 13.8021C25.7507 13.4375 25.7611 13.2448 26.0215 13.224C26.0424 13.276 27.0892 13.2917 27.459 13.724C26.4486 13.5208 27.308 13.8906 27.7611 14.099C27.2767 13.7188 27.9538 14.099 27.558 13.6667C27.7142 13.6979 27.1257 13.0729 27.7299 13.6198C27.4017 13.2292 28.3705 13.3438 27.7976 13.0521C28.6361 13.2865 28.1413 13.0729 27.6465 12.8594C26.2819 12.0469 30.058 13.9583 28.5163 13.1094C29.5007 13.3229 26.4121 12.349 27.8184 12.776C27.2819 12.5417 27.8028 12.6719 28.2872 12.8229C27.4174 12.5521 26.1153 12.0469 26.1674 12.026C26.4694 12.0469 26.7663 12.1146 27.0528 12.1979C27.9434 12.4635 26.7976 12.1354 27.0424 12.1406C30.1049 12.9271 32.7872 14.9792 34.4174 17.6615C34.7976 18.0625 35.834 20.7135 35.2924 19.5365C35.5372 20.474 35.5736 21.4844 35.7038 22.4427C35.433 22.1406 35.1309 21.026 34.8705 20.4063C34.7611 20.6458 34.6361 20.0677 34.2351 19.9115Z" fill="white"/>
<path d="M6.59939 9.72786C5.78887 10.6017 4.63641 12.4 3.85121 14.0084C1.57162 18.6816 0.951065 23.7094 2.0402 28.7498C2.49612 30.9027 3.55993 33.6129 4.62374 35.3733L5.09232 36.1331V36.1556L6.25705 37.7542L6.85267 38.4887L7.4479 39.2106L8.79033 40.553L10.2258 41.7265L12.6276 43.3772C14.388 44.441 17.0982 45.5048 19.2511 45.9734C25.1781 47.2398 31.5483 46.0367 36.538 42.6933C38.7923 41.1989 39.2482 40.5403 38.5517 39.8438C38.1211 39.4006 37.7285 39.4512 36.9939 40.0338C30.6491 45.0489 21.9993 45.9987 14.9452 42.44C8.96763 39.4385 4.92769 34.0562 3.69924 27.458C3.3573 25.6343 3.39529 22.025 3.76256 20.1633C4.38312 17.0605 5.76354 13.9324 7.53655 11.5895C8.35974 10.513 8.47372 10.2851 8.42306 9.95581C8.3724 9.74052 8.22043 9.47457 8.08112 9.34793C7.61254 8.968 7.21994 9.06931 6.59939 9.72786Z" fill="white"/>
<path d="M41.5854 38.0663C42.3959 37.1926 43.5484 35.3945 44.3336 33.7864C46.6132 29.1139 47.2337 24.0868 46.1446 19.0471C45.6887 16.8945 44.6249 14.1847 43.5611 12.4246L43.0925 11.6649V11.6424L41.9278 10.044L41.3321 9.30962L40.7369 8.58785L39.3945 7.24562L37.959 6.07232L35.5572 4.42187C33.7968 3.35822 31.0866 2.29456 28.9337 1.82605C23.0067 0.559791 16.6366 1.76273 11.6468 5.10565C9.39252 6.59983 8.93661 7.25828 9.63315 7.95472C10.0637 8.39791 10.4563 8.34726 11.1909 7.76479C17.5357 2.75041 26.1855 1.80072 33.2396 5.3589C39.2172 8.35993 43.2571 13.7415 44.4856 20.3387C44.8275 22.1621 44.7895 25.771 44.4223 27.6324C43.8017 30.7347 42.4213 33.8624 40.6483 36.2049C39.8251 37.2813 39.7111 37.5092 39.7618 37.8384C39.8124 38.0537 39.9644 38.3196 40.1037 38.4462C40.5723 38.8261 40.9649 38.7248 41.5854 38.0663Z" fill="white"/>
</svg>
