<svg width="19" height="20" viewBox="0 0 19 20" fill="none" xmlns="http://www.w3.org/2000/svg">
<path d="M0.577148 3.02734V15.728H17.8962V3.02734H0.577148ZM7.13731 11.4943H2.67622V5.14431H7.13702L7.13731 11.4943ZM10.811 13.0825H7.66208V3.82113H10.811V13.0825ZM11.3357 9.96592C11.7056 10.2697 12.1693 10.4359 12.6479 10.4361C13.8074 10.4361 14.7467 9.48821 14.7467 8.31917C14.7467 7.15043 13.8072 6.2025 12.6479 6.2025C12.1693 6.20275 11.7056 6.36892 11.3357 6.67271V5.14431H15.7965V11.4943H11.3357V9.96592ZM11.3357 12.2881H16.584V4.35052H11.3357V3.55673H17.3711V13.0822H11.3357V12.2881ZM1.10192 3.55673H7.13702V4.35052H1.88907V12.2881H7.13731V13.0822H1.10192V3.55673Z" fill="#1FEB85"/>
<path d="M5.03684 9.64248C4.8971 9.64172 4.76336 9.58555 4.66498 9.48631C4.5666 9.38706 4.51161 9.25284 4.51207 9.1131H3.98759C3.98745 9.34633 4.06463 9.57302 4.20706 9.75771C4.34949 9.9424 4.54913 10.0746 4.77474 10.1338V10.4363H5.29951V10.1338C5.52507 10.0746 5.72466 9.94228 5.86707 9.75762C6.00949 9.57295 6.08671 9.3463 6.08666 9.1131C6.08666 8.52974 5.61587 8.05491 5.03713 8.05491C4.89743 8.05414 4.76375 7.99802 4.66537 7.89883C4.567 7.79965 4.51198 7.6655 4.51236 7.52581C4.51236 7.23341 4.7479 6.99643 5.03713 6.99643C5.32664 6.99643 5.56189 7.23341 5.56189 7.52581H6.08637C6.08652 7.29258 6.00934 7.06589 5.86691 6.8812C5.72448 6.69652 5.52483 6.56426 5.29922 6.50514V6.20264H4.77445V6.50514C4.54889 6.56435 4.34931 6.69663 4.20689 6.88129C4.06447 7.06596 3.98726 7.29261 3.9873 7.52581C3.9873 8.10917 4.45809 8.584 5.03684 8.584C5.32635 8.584 5.5616 8.82127 5.5616 9.1131C5.56214 9.25287 5.50717 9.38713 5.40878 9.48639C5.31038 9.58565 5.1766 9.6418 5.03684 9.64248Z" fill="#1FEB85"/>
</svg>
